<!-- Generator: Adobe Illustrator 19.0.0, SVG Export Plug-In . SVG Version: 6.00 Build 0)  -->
<svg version="1.1" id="Capa_1" xmlns="http://www.w3.org/2000/svg" xmlns:xlink="http://www.w3.org/1999/xlink" x="0px" y="0px"
	 viewBox="0 0 512 512" style="enable-background:new 0 0 512 512;" xml:space="preserve">
<circle style="fill:#733C82;" cx="256" cy="256" r="256"/>
<path style="fill:#4B285A;" d="M255.109,217.277l-41.942-41.942L144.5,409.833l101.972,101.972c3.163,0.116,6.336,0.195,9.528,0.195
	c141.385,0,256-114.615,256-256c0-0.903-0.025-1.8-0.034-2.701L318.667,60L255.109,217.277z"/>
<polygon style="fill:#FF4682;" points="318.667,153.667 318.667,60 250,60 250,222.333 343.667,222.333 343.667,316 412.333,316 
	412.333,153.667 "/>
<rect x="343.67" y="255.91" style="fill:#C42364;" width="68.67" height="60.09"/>
<polygon style="fill:#FFEB50;" points="213.167,341.167 213.167,175.334 144.5,175.334 144.5,409.833 306.833,409.833 
	306.833,341.167 "/>
<polygon style="fill:#F7D139;" points="213.167,255.905 144.5,255.905 144.5,409.833 306.833,409.833 306.833,341.167 
	213.167,341.167 "/>
<g>
</g>
<g>
</g>
<g>
</g>
<g>
</g>
<g>
</g>
<g>
</g>
<g>
</g>
<g>
</g>
<g>
</g>
<g>
</g>
<g>
</g>
<g>
</g>
<g>
</g>
<g>
</g>
<g>
</g>
</svg>
